<svg viewBox="0 0 12 12" width="168px" height="168px" xmlns="http://www.w3.org/2000/svg"><path fill-rule="evenodd" d="M 1,0 11,0 11,4 12,4 12,7 10,7 10,8 12,8 12,11 10,11 10,12 7,12 7,9 5,9 5,12 2,12 2,11 0,11 0,8 2,8 2,7 0,7 0,4 1,4z M 7,4 7,5 5,5 5,4z" fill="#F5498B"/><path fill-rule="evenodd" d="M 2,1 3,1 3,2 2,2z" fill="#ffffff"/><path fill-rule="evenodd" d="M 4,1 5,1 5,3 4,3 4,4 2,4 2,3 3,3 3,2 4,2z" fill="#ffffff"/><path fill-rule="evenodd" d="M 7,1 8,1 8,2 9,2 9,3 10,3 10,4 8,4 8,3 7,3z" fill="#ffffff"/><path fill-rule="evenodd" d="M 9,1 10,1 10,2 9,2z" fill="#ffffff"/><path fill-rule="evenodd" d="M 1,5 2,5 2,6 1,6z" fill="#ffffff"/><path fill-rule="evenodd" d="M 10,5 11,5 11,6 10,6z" fill="#ffffff"/><path fill-rule="evenodd" d="M 3,6 5,6 5,7 4,7 4,11 3,11z" fill="#ffffff"/><path fill-rule="evenodd" d="M 7,6 9,6 9,11 8,11 8,7 7,7z" fill="#ffffff"/><path fill-rule="evenodd" d="M 5,7 7,7 7,8 5,8z" fill="#ffffff"/><path fill-rule="evenodd" d="M 1,9 2,9 2,10 1,10z" fill="#ffffff"/><path fill-rule="evenodd" d="M 10,9 11,9 11,10 10,10z" fill="#ffffff"/></svg>